<svg width="960" height="660" viewBox="0 0 960 660" fill="none" xmlns="http://www.w3.org/2000/svg">
  <defs>
    <radialGradient id="glowA" cx="0" cy="0" r="1" gradientUnits="userSpaceOnUse" gradientTransform="translate(506 306) rotate(90) scale(312 430)">
      <stop stop-color="#20C7E8" stop-opacity=".28"/>
      <stop offset=".42" stop-color="#0B66FF" stop-opacity=".14"/>
      <stop offset="1" stop-color="#0B66FF" stop-opacity="0"/>
    </radialGradient>
    <linearGradient id="panel" x1="160" y1="80" x2="770" y2="540" gradientUnits="userSpaceOnUse">
      <stop stop-color="#111C32" stop-opacity=".96"/>
      <stop offset="1" stop-color="#07111F" stop-opacity=".9"/>
    </linearGradient>
    <linearGradient id="edge" x1="184" y1="82" x2="760" y2="535" gradientUnits="userSpaceOnUse">
      <stop stop-color="#20C7E8" stop-opacity=".55"/>
      <stop offset=".48" stop-color="#0B66FF" stop-opacity=".4"/>
      <stop offset="1" stop-color="#7DD3FC" stop-opacity=".18"/>
    </linearGradient>
    <linearGradient id="blue" x1="0" y1="0" x2="1" y2="1">
      <stop stop-color="#0B66FF"/>
      <stop offset="1" stop-color="#20C7E8"/>
    </linearGradient>
    <filter id="shadow" x="40" y="20" width="880" height="640" filterUnits="userSpaceOnUse" color-interpolation-filters="sRGB">
      <feDropShadow dx="0" dy="24" stdDeviation="28" flood-color="#020617" flood-opacity=".42"/>
      <feDropShadow dx="0" dy="0" stdDeviation="24" flood-color="#0B66FF" flood-opacity=".16"/>
    </filter>
    <filter id="soft" x="-20%" y="-20%" width="140%" height="140%" color-interpolation-filters="sRGB">
      <feDropShadow dx="0" dy="10" stdDeviation="14" flood-color="#0EA5E9" flood-opacity=".18"/>
    </filter>
  </defs>

  <rect width="960" height="660" fill="transparent"/>
  <ellipse cx="506" cy="306" rx="430" ry="312" fill="url(#glowA)"/>

  <g opacity=".42">
    <path d="M139 137H217C242 137 263 158 263 183V440C263 465 284 486 309 486H384" stroke="#38BDF8" stroke-opacity=".32" stroke-width="1.4"/>
    <path d="M792 164H704C679 164 658 185 658 210V426C658 451 637 472 612 472H553" stroke="#38BDF8" stroke-opacity=".26" stroke-width="1.4"/>
    <path d="M201 514H273C296 514 315 495 315 472V403" stroke="#0B66FF" stroke-opacity=".26" stroke-width="1.2"/>
    <path d="M762 501H708C684 501 665 482 665 458V374" stroke="#20C7E8" stroke-opacity=".24" stroke-width="1.2"/>
  </g>

  <g filter="url(#shadow)">
    <rect x="176" y="86" width="608" height="448" rx="22" fill="url(#panel)"/>
    <rect x="176.5" y="86.5" width="607" height="447" rx="21.5" stroke="url(#edge)"/>
  </g>

  <rect x="206" y="116" width="548" height="62" rx="16" fill="#081427" stroke="#17345C"/>
  <circle cx="232" cy="147" r="7" fill="#20C7E8"/>
  <circle cx="254" cy="147" r="7" fill="#0B66FF"/>
  <circle cx="276" cy="147" r="7" fill="#64748B"/>
  <text x="318" y="151" fill="#E5F4FF" font-family="Inter, Arial, sans-serif" font-size="18" font-weight="700">Agents-Flex Runtime</text>
  <text x="598" y="151" fill="#7DD3FC" font-family="Inter, Arial, sans-serif" font-size="13" font-weight="700">Java-native</text>

  <g filter="url(#soft)">
    <rect x="314" y="246" width="332" height="132" rx="20" fill="#0D1A2F" stroke="#1E5EA9"/>
    <text x="360" y="288" fill="#F8FAFC" font-family="Inter, Arial, sans-serif" font-size="24" font-weight="800">Agent Orchestration</text>
    <text x="360" y="319" fill="#A7B6CA" font-family="Inter, Arial, sans-serif" font-size="15">Tool Calling + Memory + Routing</text>
    <rect x="360" y="343" width="92" height="12" rx="6" fill="#20C7E8" fill-opacity=".78"/>
    <rect x="466" y="343" width="132" height="12" rx="6" fill="#0B66FF" fill-opacity=".64"/>
  </g>

  <g stroke-linecap="round" stroke-width="2">
    <path d="M314 312H232" stroke="#20C7E8" stroke-opacity=".62"/>
    <path d="M646 312H728" stroke="#20C7E8" stroke-opacity=".62"/>
    <path d="M394 246V242" stroke="#0B66FF" stroke-opacity=".62"/>
    <path d="M566 246V242" stroke="#0B66FF" stroke-opacity=".62"/>
    <path d="M394 378V442" stroke="#38BDF8" stroke-opacity=".58"/>
    <path d="M566 378V442" stroke="#38BDF8" stroke-opacity=".58"/>
  </g>

  <g font-family="Inter, Arial, sans-serif" font-size="14" font-weight="750">
    <g filter="url(#soft)">
      <rect x="96" y="274" width="136" height="76" rx="18" fill="#0B1629" stroke="#17477A"/>
      <circle cx="124" cy="312" r="15" fill="url(#blue)"/>
      <path d="M118 312H130M124 306V318" stroke="white" stroke-width="2" stroke-linecap="round"/>
      <text x="150" y="317" fill="#DFF7FF">ChatModel</text>
    </g>
    <g filter="url(#soft)">
      <rect x="728" y="274" width="136" height="76" rx="18" fill="#0B1629" stroke="#17477A"/>
      <circle cx="756" cy="312" r="15" fill="url(#blue)"/>
      <path d="M749 314L754 319L764 306" stroke="white" stroke-width="2.4" stroke-linecap="round" stroke-linejoin="round"/>
      <text x="782" y="317" fill="#DFF7FF">Tools</text>
    </g>
    <g filter="url(#soft)">
      <rect x="342" y="198" width="104" height="44" rx="14" fill="#0B1629" stroke="#17345C"/>
      <text x="371" y="226" fill="#93C5FD">MCP</text>
    </g>
    <g filter="url(#soft)">
      <rect x="514" y="198" width="104" height="44" rx="14" fill="#0B1629" stroke="#17345C"/>
      <text x="546" y="226" fill="#67E8F9">RAG</text>
    </g>
    <g filter="url(#soft)">
      <rect x="320" y="442" width="148" height="66" rx="17" fill="#0B1629" stroke="#17345C"/>
      <text x="354" y="481" fill="#93C5FD">LLM Wiki</text>
    </g>
    <g filter="url(#soft)">
      <rect x="492" y="442" width="148" height="66" rx="17" fill="#0B1629" stroke="#17345C"/>
      <text x="532" y="481" fill="#67E8F9">Text2SQL</text>
    </g>
  </g>

  <g opacity=".7">
    <rect x="222" y="410" width="74" height="12" rx="6" fill="#0B66FF" fill-opacity=".45"/>
    <rect x="222" y="436" width="122" height="12" rx="6" fill="#20C7E8" fill-opacity=".32"/>
    <rect x="222" y="462" width="92" height="12" rx="6" fill="#64748B" fill-opacity=".35"/>
    <rect x="644" y="410" width="92" height="12" rx="6" fill="#0B66FF" fill-opacity=".38"/>
    <rect x="644" y="436" width="72" height="12" rx="6" fill="#20C7E8" fill-opacity=".34"/>
    <rect x="644" y="462" width="116" height="12" rx="6" fill="#64748B" fill-opacity=".32"/>
  </g>

  <g opacity=".85">
    <circle cx="164" cy="154" r="5" fill="#20C7E8"/>
    <circle cx="796" cy="119" r="4" fill="#38BDF8"/>
    <circle cx="823" cy="402" r="5" fill="#0B66FF"/>
    <circle cx="128" cy="463" r="4" fill="#60A5FA"/>
    <rect x="799" y="182" width="36" height="36" rx="10" fill="#0B66FF" fill-opacity=".12" stroke="#38BDF8" stroke-opacity=".28"/>
    <rect x="114" y="360" width="44" height="44" rx="12" fill="#20C7E8" fill-opacity=".1" stroke="#38BDF8" stroke-opacity=".22"/>
  </g>
</svg>
